<?xml version="1.0" encoding="UTF-8" standalone="no"?>
<!-- Created with Inkscape (http://www.inkscape.org/) -->

<svg
   width="180"
   height="180"
   viewBox="0 0 180 180"
   version="1.1"
   id="svg5"
   xml:space="preserve"
   sodipodi:docname="aula4.svg"
   inkscape:version="1.1.2 (0a00cf5339, 2022-02-04)"
   xmlns:inkscape="http://www.inkscape.org/namespaces/inkscape"
   xmlns:sodipodi="http://sodipodi.sourceforge.net/DTD/sodipodi-0.dtd"
   xmlns:xlink="http://www.w3.org/1999/xlink"
   xmlns="http://www.w3.org/2000/svg"
   xmlns:svg="http://www.w3.org/2000/svg"><sodipodi:namedview
     id="namedview7"
     pagecolor="#ffffff"
     bordercolor="#000000"
     borderopacity="0.25"
     inkscape:showpageshadow="2"
     inkscape:pageopacity="0.0"
     inkscape:pagecheckerboard="0"
     inkscape:deskcolor="#d1d1d1"
     inkscape:document-units="px"
     showgrid="false"
     inkscape:zoom="0.96568915"
     inkscape:cx="168.79138"
     inkscape:cy="20.710598"
     inkscape:window-width="1366"
     inkscape:window-height="691"
     inkscape:window-x="0"
     inkscape:window-y="0"
     inkscape:window-maximized="1"
     inkscape:current-layer="g949"
     inkscape:pageshadow="0" /><defs
     id="defs2"><linearGradient
       inkscape:collect="always"
       xlink:href="#linearGradient6194"
       id="linearGradient6039"
       gradientUnits="userSpaceOnUse"
       gradientTransform="matrix(0.09470418,0,0,0.11333349,492.72856,-49.43375)"
       x1="-827.47772"
       y1="312.46976"
       x2="-258.07211"
       y2="716.66718" /><linearGradient
       inkscape:collect="always"
       id="linearGradient6194"><stop
         style="stop-color:#ffaaee;stop-opacity:1"
         offset="0"
         id="stop6190" /><stop
         style="stop-color:#d400aa;stop-opacity:1"
         offset="1"
         id="stop6192" /></linearGradient></defs><g
     inkscape:label="Camada 1"
     inkscape:groupmode="layer"
     id="layer1"><g
       id="g949"
       transform="matrix(2.643626,0,0,3.3463795,-1076.4774,55.69211)"><path
         id="path5966"
         style="fill:url(#linearGradient6039);fill-opacity:1;stroke-width:1.26334"
         d="m 414.3639,-14.0197 c -2.8934,0 -5.36016,2.79136 -5.22266,6.25 l 1.44141,36.25 c 0.1375,3.45863 2.32927,6.25 5.22266,6.25 h 50.56445 c 2.89339,0 5.07601,-2.7919 5.22266,-6.25 l 1.53711,-36.25 c 0.14665,-3.4581 -2.32928,-6.25 -5.22266,-6.25 z" /><rect
         style="fill:#ff0d0d;fill-opacity:1;stroke:none;stroke-width:0.2;stroke-opacity:1"
         id="rect5968"
         width="33.320862"
         height="1.4793278"
         x="424.47531"
         y="23.32234"
         ry="0.7396639" /><rect
         style="fill:#ffa695;fill-opacity:1;stroke:none;stroke-width:0.155577;stroke-opacity:1"
         id="rect5970"
         width="20.162586"
         height="1.4793278"
         x="437.63358"
         y="23.32234"
         ry="0.7396639" /><path
         id="path5972"
         style="fill:#646464;fill-opacity:1;stroke:none;stroke-width:0.2;stroke-opacity:1"
         d="m 435.76212,23.3221 a 1.8061136,1.8061136 0 0 0 -0.16016,0.74023 1.8061136,1.8061136 0 0 0 0.16016,0.74023 h 3.29297 a 1.8061136,1.8061136 0 0 0 0.16016,-0.74023 1.8061136,1.8061136 0 0 0 -0.16016,-0.74023 z" /><circle
         style="fill:#383838;fill-opacity:1;stroke:none;stroke-width:0.2;stroke-opacity:1"
         id="circle5974"
         cx="437.70337"
         cy="24.061995"
         r="1.8061136" /><rect
         style="fill:#383838;fill-opacity:1;stroke:none;stroke-width:0.105624;stroke-opacity:1"
         id="rect5976"
         width="3.447001"
         height="2.7104592"
         x="415.14389"
         y="-6.3293166"
         ry="1.0129454" /><rect
         style="fill:#383838;fill-opacity:1;stroke:none;stroke-width:0.105624;stroke-opacity:1"
         id="rect5978"
         width="3.447001"
         height="2.7104592"
         x="415.14389"
         y="-0.19757219"
         ry="1.0129454" /><rect
         style="fill:#383838;fill-opacity:1;stroke:none;stroke-width:0.105624;stroke-opacity:1"
         id="rect5980"
         width="3.447001"
         height="2.7104592"
         x="415.14389"
         y="5.9341874"
         ry="1.0129454" /><rect
         style="fill:#383838;fill-opacity:1;stroke:none;stroke-width:0.105624;stroke-opacity:1"
         id="rect5982"
         width="3.447001"
         height="2.7104592"
         x="415.14389"
         y="12.065948"
         ry="1.0129454" /><rect
         style="fill:#383838;fill-opacity:1;stroke:none;stroke-width:0.105624;stroke-opacity:1"
         id="rect5984"
         width="3.447001"
         height="2.7104592"
         x="415.14389"
         y="18.197706"
         ry="1.0129454" /><rect
         style="fill:#383838;fill-opacity:1;stroke:none;stroke-width:0.105624;stroke-opacity:1"
         id="rect5986"
         width="3.447001"
         height="2.7104592"
         x="415.14389"
         y="24.329451"
         ry="1.0129454" /><rect
         style="fill:#383838;fill-opacity:1;stroke:none;stroke-width:0.105624;stroke-opacity:1"
         id="rect5988"
         width="3.447001"
         height="2.7104592"
         x="463.6806"
         y="-6.3293166"
         ry="1.0129454" /><rect
         style="fill:#383838;fill-opacity:1;stroke:none;stroke-width:0.105624;stroke-opacity:1"
         id="rect5990"
         width="3.447001"
         height="2.7104592"
         x="463.6806"
         y="-0.19757219"
         ry="1.0129454" /><rect
         style="fill:#383838;fill-opacity:1;stroke:none;stroke-width:0.105624;stroke-opacity:1"
         id="rect5992"
         width="3.447001"
         height="2.7104592"
         x="463.6806"
         y="5.9341874"
         ry="1.0129454" /><rect
         style="fill:#383838;fill-opacity:1;stroke:none;stroke-width:0.105624;stroke-opacity:1"
         id="rect5994"
         width="3.447001"
         height="2.7104592"
         x="463.6806"
         y="12.065948"
         ry="1.0129454" /><rect
         style="fill:#383838;fill-opacity:1;stroke:none;stroke-width:0.105624;stroke-opacity:1"
         id="rect5996"
         width="3.447001"
         height="2.7104592"
         x="463.6806"
         y="18.197706"
         ry="1.0129454" /><rect
         style="fill:#383838;fill-opacity:1;stroke:none;stroke-width:0.105624;stroke-opacity:1"
         id="rect5998"
         width="3.447001"
         height="2.7104592"
         x="463.6806"
         y="24.329451"
         ry="1.0129454" /><g
         id="g6004"
         transform="translate(166.80799,-33.50141)"><path
           id="path6000"
           style="fill:#ff0d0d;fill-opacity:1;stroke-width:26.9217"
           d="M 264.81947,44.345783 V 28.062004 a 3.4679073,3.4679073 0 0 1 5.20185,-3.003297 l 14.10217,8.141891 a 3.4679071,3.4679071 0 0 1 0,6.006591 l -14.10217,8.141891 a 3.4679075,3.4679075 0 0 1 -5.20185,-3.003297 z"
           sodipodi:nodetypes="cccc"
           inkscape:transform-center-x="-3.0186562" /><path
           id="path6002"
           style="opacity:0.5;fill:none;fill-opacity:1;stroke:#562f00;stroke-width:0.900053;stroke-dasharray:none;stroke-opacity:1"
           d="M 267.54449,45.150394 V 30.494127 A 3.1213009,3.1213009 0 0 1 272.22644,27.791 l 12.6927,7.328135 a 3.1213007,3.1213007 0 0 1 0,5.406251 l -12.6927,7.328134 a 3.121301,3.121301 0 0 1 -4.68195,-2.703126 z"
           sodipodi:nodetypes="cccc"
           inkscape:transform-center-x="-2.7169511" /></g><text
         xml:space="preserve"
         style="font-style:normal;font-variant:normal;font-weight:900;font-stretch:normal;font-size:12.7766px;font-family:Roboto;-inkscape-font-specification:'Roboto Heavy';fill:#383838;fill-opacity:1;stroke:none;stroke-width:1.06472"
         x="446.20554"
         y="20.100666"
         id="text6008"
         transform="rotate(0.27167258)"><tspan
           sodipodi:role="line"
           id="tspan6006"
           x="446.20554"
           y="20.100666"
           style="fill:#383838;fill-opacity:1;stroke-width:1.06472">4°</tspan></text></g></g></svg>
