<?xml version="1.0" encoding="UTF-8" standalone="no"?>
<!-- Created with Inkscape (http://www.inkscape.org/) -->

<svg
   width="180"
   height="180"
   viewBox="0 0 180 180"
   version="1.1"
   id="svg5"
   xml:space="preserve"
   sodipodi:docname="aula1.svg"
   inkscape:version="1.1.2 (0a00cf5339, 2022-02-04)"
   xmlns:inkscape="http://www.inkscape.org/namespaces/inkscape"
   xmlns:sodipodi="http://sodipodi.sourceforge.net/DTD/sodipodi-0.dtd"
   xmlns:xlink="http://www.w3.org/1999/xlink"
   xmlns="http://www.w3.org/2000/svg"
   xmlns:svg="http://www.w3.org/2000/svg"><sodipodi:namedview
     id="namedview7"
     pagecolor="#ffffff"
     bordercolor="#000000"
     borderopacity="0.25"
     inkscape:showpageshadow="2"
     inkscape:pageopacity="0.0"
     inkscape:pagecheckerboard="0"
     inkscape:deskcolor="#d1d1d1"
     inkscape:document-units="px"
     showgrid="false"
     inkscape:zoom="0.96568915"
     inkscape:cx="168.79138"
     inkscape:cy="103.55299"
     inkscape:window-width="1366"
     inkscape:window-height="691"
     inkscape:window-x="0"
     inkscape:window-y="0"
     inkscape:window-maximized="1"
     inkscape:current-layer="layer1"
     inkscape:pageshadow="0" /><defs
     id="defs2"><linearGradient
       inkscape:collect="always"
       xlink:href="#linearGradient885-9"
       id="linearGradient5826"
       gradientUnits="userSpaceOnUse"
       gradientTransform="matrix(0.09470418,0,0,0.11333349,84.092815,57.063124)"
       x1="-827.47772"
       y1="312.46976"
       x2="-258.07211"
       y2="716.66718" /><linearGradient
       inkscape:collect="always"
       id="linearGradient885-9"><stop
         style="stop-color:#f9b843;stop-opacity:1;"
         offset="0"
         id="stop881-1" /><stop
         style="stop-color:#ff5450;stop-opacity:1;"
         offset="1"
         id="stop883-2" /></linearGradient></defs><g
     inkscape:label="Camada 1"
     inkscape:groupmode="layer"
     id="layer1"><g
       id="g1066"
       transform="matrix(2.6436264,0,0,3.3463797,4.5581548,-304.08777)"><path
         id="path5757"
         style="fill:url(#linearGradient5826);fill-opacity:1;stroke-width:1.26334"
         d="m 5.7281584,92.477173 c -2.8933971,0 -5.36015605,2.791363 -5.22265618,6.25 L 1.9469084,134.97717 c 0.1374999,3.45864 2.3292692,6.25 5.2226563,6.25 H 57.734018 c 2.893387,0 5.076006,-2.7919 5.222656,-6.25 l 1.53711,-36.249997 c 0.146649,-3.458098 -2.32928,-6.25 -5.222657,-6.25 z" /><rect
         style="fill:#ff0d0d;fill-opacity:1;stroke:none;stroke-width:0.2;stroke-opacity:1"
         id="rect5759"
         width="33.320862"
         height="1.4793278"
         x="15.839569"
         y="129.81921"
         ry="0.7396639" /><rect
         style="fill:#ffa695;fill-opacity:1;stroke:none;stroke-width:0.155577;stroke-opacity:1"
         id="rect5761"
         width="20.162586"
         height="1.4793278"
         x="28.997845"
         y="129.81921"
         ry="0.7396639" /><path
         id="path5763"
         style="fill:#646464;fill-opacity:1;stroke:none;stroke-width:0.2;stroke-opacity:1"
         d="m 27.126377,129.81897 a 1.8061136,1.8061136 0 0 0 -0.160156,0.74023 1.8061136,1.8061136 0 0 0 0.160156,0.74024 h 3.292969 a 1.8061136,1.8061136 0 0 0 0.160156,-0.74024 1.8061136,1.8061136 0 0 0 -0.160156,-0.74023 z" /><circle
         style="fill:#383838;fill-opacity:1;stroke:none;stroke-width:0.2;stroke-opacity:1"
         id="circle5765"
         cx="29.067614"
         cy="130.55887"
         r="1.8061136" /><rect
         style="fill:#383838;fill-opacity:1;stroke:none;stroke-width:0.105624;stroke-opacity:1"
         id="rect5767"
         width="3.447001"
         height="2.7104592"
         x="6.5081472"
         y="100.16756"
         ry="1.0129454" /><rect
         style="fill:#383838;fill-opacity:1;stroke:none;stroke-width:0.105624;stroke-opacity:1"
         id="rect5769"
         width="3.447001"
         height="2.7104592"
         x="6.5081472"
         y="106.29931"
         ry="1.0129454" /><rect
         style="fill:#383838;fill-opacity:1;stroke:none;stroke-width:0.105624;stroke-opacity:1"
         id="rect5771"
         width="3.447001"
         height="2.7104592"
         x="6.5081472"
         y="112.43107"
         ry="1.0129454" /><rect
         style="fill:#383838;fill-opacity:1;stroke:none;stroke-width:0.105624;stroke-opacity:1"
         id="rect5773"
         width="3.447001"
         height="2.7104592"
         x="6.5081472"
         y="118.56282"
         ry="1.0129454" /><rect
         style="fill:#383838;fill-opacity:1;stroke:none;stroke-width:0.105624;stroke-opacity:1"
         id="rect5775"
         width="3.447001"
         height="2.7104592"
         x="6.5081472"
         y="124.69458"
         ry="1.0129454" /><rect
         style="fill:#383838;fill-opacity:1;stroke:none;stroke-width:0.105624;stroke-opacity:1"
         id="rect5777"
         width="3.447001"
         height="2.7104592"
         x="6.5081472"
         y="130.82634"
         ry="1.0129454" /><rect
         style="fill:#383838;fill-opacity:1;stroke:none;stroke-width:0.105624;stroke-opacity:1"
         id="rect5779"
         width="3.447001"
         height="2.7104592"
         x="55.044853"
         y="100.16756"
         ry="1.0129454" /><rect
         style="fill:#383838;fill-opacity:1;stroke:none;stroke-width:0.105624;stroke-opacity:1"
         id="rect5781"
         width="3.447001"
         height="2.7104592"
         x="55.044853"
         y="106.29931"
         ry="1.0129454" /><rect
         style="fill:#383838;fill-opacity:1;stroke:none;stroke-width:0.105624;stroke-opacity:1"
         id="rect5783"
         width="3.447001"
         height="2.7104592"
         x="55.044853"
         y="112.43107"
         ry="1.0129454" /><rect
         style="fill:#383838;fill-opacity:1;stroke:none;stroke-width:0.105624;stroke-opacity:1"
         id="rect5785"
         width="3.447001"
         height="2.7104592"
         x="55.044853"
         y="118.56282"
         ry="1.0129454" /><rect
         style="fill:#383838;fill-opacity:1;stroke:none;stroke-width:0.105624;stroke-opacity:1"
         id="rect5787"
         width="3.447001"
         height="2.7104592"
         x="55.044853"
         y="124.69458"
         ry="1.0129454" /><rect
         style="fill:#383838;fill-opacity:1;stroke:none;stroke-width:0.105624;stroke-opacity:1"
         id="rect5789"
         width="3.447001"
         height="2.7104592"
         x="55.044853"
         y="130.82634"
         ry="1.0129454" /><g
         id="g5795"
         transform="translate(-9.0526492e-8,76.227173)"><path
           id="path5791"
           style="fill:#ff0d0d;fill-opacity:1;stroke-width:26.9217"
           d="M 22.991716,41.114081 V 24.830302 a 3.4679073,3.4679073 0 0 1 5.201854,-3.003297 l 14.10217,8.141891 a 3.4679071,3.4679071 0 0 1 0,6.006591 l -14.10217,8.141891 a 3.4679075,3.4679075 0 0 1 -5.201854,-3.003297 z"
           sodipodi:nodetypes="cccc"
           inkscape:transform-center-x="-3.0186562" /><path
           id="path5793"
           style="opacity:0.5;fill:none;fill-opacity:1;stroke:#562f00;stroke-width:0.900053;stroke-dasharray:none;stroke-opacity:1"
           d="M 25.716738,41.918692 V 27.262425 a 3.1213009,3.1213009 0 0 1 4.681945,-2.703127 l 12.692702,7.328135 a 3.1213007,3.1213007 0 0 1 0,5.406251 l -12.692702,7.328134 a 3.121301,3.121301 0 0 1 -4.681945,-2.703126 z"
           sodipodi:nodetypes="cccc"
           inkscape:transform-center-x="-2.7169511" /></g><text
         xml:space="preserve"
         style="font-style:normal;font-variant:normal;font-weight:900;font-stretch:normal;font-size:12.7766px;font-family:Roboto;-inkscape-font-specification:'Roboto Heavy';fill:#383838;fill-opacity:1;stroke:none;stroke-width:1.06472"
         x="38.079403"
         y="128.54254"
         id="text5799"
         transform="rotate(0.27167258)"><tspan
           sodipodi:role="line"
           id="tspan5797"
           x="38.079403"
           y="128.54254"
           style="fill:#383838;fill-opacity:1;stroke-width:1.06472">1°</tspan></text></g></g></svg>
