<?xml version="1.0" encoding="UTF-8" standalone="no"?>
<!-- Created with Inkscape (http://www.inkscape.org/) -->

<svg
   width="180"
   height="180"
   viewBox="0 0 180 180"
   version="1.1"
   id="svg5"
   xml:space="preserve"
   sodipodi:docname="aula3.svg"
   inkscape:version="1.1.2 (0a00cf5339, 2022-02-04)"
   xmlns:inkscape="http://www.inkscape.org/namespaces/inkscape"
   xmlns:sodipodi="http://sodipodi.sourceforge.net/DTD/sodipodi-0.dtd"
   xmlns:xlink="http://www.w3.org/1999/xlink"
   xmlns="http://www.w3.org/2000/svg"
   xmlns:svg="http://www.w3.org/2000/svg"><sodipodi:namedview
     id="namedview7"
     pagecolor="#ffffff"
     bordercolor="#000000"
     borderopacity="0.25"
     inkscape:showpageshadow="2"
     inkscape:pageopacity="0.0"
     inkscape:pagecheckerboard="0"
     inkscape:deskcolor="#d1d1d1"
     inkscape:document-units="px"
     showgrid="false"
     inkscape:zoom="0.96568915"
     inkscape:cx="168.79138"
     inkscape:cy="103.55299"
     inkscape:window-width="1366"
     inkscape:window-height="691"
     inkscape:window-x="0"
     inkscape:window-y="0"
     inkscape:window-maximized="1"
     inkscape:current-layer="layer1"
     inkscape:pageshadow="0" /><defs
     id="defs2"><linearGradient
       inkscape:collect="always"
       xlink:href="#linearGradient6188"
       id="linearGradient6037"
       gradientUnits="userSpaceOnUse"
       gradientTransform="matrix(0.09470418,0,0,0.11333349,368.14352,25.39678)"
       x1="-827.47772"
       y1="312.46976"
       x2="-258.07211"
       y2="716.66718" /><linearGradient
       inkscape:collect="always"
       id="linearGradient6188"><stop
         style="stop-color:#a0f943;stop-opacity:1;"
         offset="0"
         id="stop6184" /><stop
         style="stop-color:#00db05;stop-opacity:1;"
         offset="1"
         id="stop6186" /></linearGradient></defs><g
     inkscape:label="Camada 1"
     inkscape:groupmode="layer"
     id="layer1"><g
       id="g949"
       transform="matrix(2.643626,0,0,3.3463795,-747.7469,-196.17204)"><path
         id="path5897"
         style="fill:url(#linearGradient6037);fill-opacity:1;stroke-width:1.26334"
         d="m 289.77886,60.81083 c -2.8934,0 -5.36016,2.79136 -5.22266,6.25 l 1.44141,36.25 c 0.1375,3.45863 2.32927,6.25 5.22266,6.25 h 50.56445 c 2.89339,0 5.07601,-2.7919 5.22266,-6.25 l 1.53711,-36.25 c 0.14665,-3.4581 -2.32928,-6.25 -5.22266,-6.25 z" /><rect
         style="fill:#ff0d0d;fill-opacity:1;stroke:none;stroke-width:0.2;stroke-opacity:1"
         id="rect5899"
         width="33.320862"
         height="1.4793278"
         x="299.89029"
         y="98.152863"
         ry="0.7396639" /><rect
         style="fill:#ffa695;fill-opacity:1;stroke:none;stroke-width:0.155577;stroke-opacity:1"
         id="rect5901"
         width="20.162586"
         height="1.4793278"
         x="313.04855"
         y="98.152863"
         ry="0.7396639" /><path
         id="path5903"
         style="fill:#646464;fill-opacity:1;stroke:none;stroke-width:0.2;stroke-opacity:1"
         d="m 311.17708,98.15263 a 1.8061136,1.8061136 0 0 0 -0.16016,0.74023 1.8061136,1.8061136 0 0 0 0.16016,0.74023 h 3.29297 a 1.8061136,1.8061136 0 0 0 0.16016,-0.74023 1.8061136,1.8061136 0 0 0 -0.16016,-0.74023 z" /><circle
         style="fill:#383838;fill-opacity:1;stroke:none;stroke-width:0.2;stroke-opacity:1"
         id="circle5905"
         cx="313.11832"
         cy="98.892517"
         r="1.8061136" /><rect
         style="fill:#383838;fill-opacity:1;stroke:none;stroke-width:0.105624;stroke-opacity:1"
         id="rect5907"
         width="3.447001"
         height="2.7104592"
         x="290.55887"
         y="68.501213"
         ry="1.0129454" /><rect
         style="fill:#383838;fill-opacity:1;stroke:none;stroke-width:0.105624;stroke-opacity:1"
         id="rect5909"
         width="3.447001"
         height="2.7104592"
         x="290.55887"
         y="74.632973"
         ry="1.0129454" /><rect
         style="fill:#383838;fill-opacity:1;stroke:none;stroke-width:0.105624;stroke-opacity:1"
         id="rect5911"
         width="3.447001"
         height="2.7104592"
         x="290.55887"
         y="80.764732"
         ry="1.0129454" /><rect
         style="fill:#383838;fill-opacity:1;stroke:none;stroke-width:0.105624;stroke-opacity:1"
         id="rect5913"
         width="3.447001"
         height="2.7104592"
         x="290.55887"
         y="86.896469"
         ry="1.0129454" /><rect
         style="fill:#383838;fill-opacity:1;stroke:none;stroke-width:0.105624;stroke-opacity:1"
         id="rect5915"
         width="3.447001"
         height="2.7104592"
         x="290.55887"
         y="93.028229"
         ry="1.0129454" /><rect
         style="fill:#383838;fill-opacity:1;stroke:none;stroke-width:0.105624;stroke-opacity:1"
         id="rect5917"
         width="3.447001"
         height="2.7104592"
         x="290.55887"
         y="99.159973"
         ry="1.0129454" /><rect
         style="fill:#383838;fill-opacity:1;stroke:none;stroke-width:0.105624;stroke-opacity:1"
         id="rect5919"
         width="3.447001"
         height="2.7104592"
         x="339.09555"
         y="68.501213"
         ry="1.0129454" /><rect
         style="fill:#383838;fill-opacity:1;stroke:none;stroke-width:0.105624;stroke-opacity:1"
         id="rect5921"
         width="3.447001"
         height="2.7104592"
         x="339.09555"
         y="74.632973"
         ry="1.0129454" /><rect
         style="fill:#383838;fill-opacity:1;stroke:none;stroke-width:0.105624;stroke-opacity:1"
         id="rect5923"
         width="3.447001"
         height="2.7104592"
         x="339.09555"
         y="80.764732"
         ry="1.0129454" /><rect
         style="fill:#383838;fill-opacity:1;stroke:none;stroke-width:0.105624;stroke-opacity:1"
         id="rect5925"
         width="3.447001"
         height="2.7104592"
         x="339.09555"
         y="86.896469"
         ry="1.0129454" /><rect
         style="fill:#383838;fill-opacity:1;stroke:none;stroke-width:0.105624;stroke-opacity:1"
         id="rect5927"
         width="3.447001"
         height="2.7104592"
         x="339.09555"
         y="93.028229"
         ry="1.0129454" /><rect
         style="fill:#383838;fill-opacity:1;stroke:none;stroke-width:0.105624;stroke-opacity:1"
         id="rect5929"
         width="3.447001"
         height="2.7104592"
         x="339.09555"
         y="99.159973"
         ry="1.0129454" /><g
         id="g5935"
         transform="translate(121.75887,41.32912)"><path
           id="path5931"
           style="fill:#ff0d0d;fill-opacity:1;stroke-width:26.9217"
           d="M 185.28355,44.345783 V 28.062004 a 3.4679073,3.4679073 0 0 1 5.20185,-3.003297 l 14.10217,8.141891 a 3.4679071,3.4679071 0 0 1 0,6.006591 L 190.4854,47.34908 a 3.4679075,3.4679075 0 0 1 -5.20185,-3.003297 z"
           sodipodi:nodetypes="cccc"
           inkscape:transform-center-x="-3.0186562" /><path
           id="path5933"
           style="opacity:0.5;fill:none;fill-opacity:1;stroke:#562f00;stroke-width:0.900053;stroke-dasharray:none;stroke-opacity:1"
           d="M 188.00857,45.150394 V 30.494127 A 3.1213009,3.1213009 0 0 1 192.69052,27.791 l 12.6927,7.328135 a 3.1213007,3.1213007 0 0 1 0,5.406251 l -12.6927,7.328134 a 3.121301,3.121301 0 0 1 -4.68195,-2.703126 z"
           sodipodi:nodetypes="cccc"
           inkscape:transform-center-x="-2.7169511" /></g><text
         xml:space="preserve"
         style="font-style:normal;font-variant:normal;font-weight:900;font-stretch:normal;font-size:12.7766px;font-family:Roboto;-inkscape-font-specification:'Roboto Heavy';fill:#383838;fill-opacity:1;stroke:none;stroke-width:1.06472"
         x="321.9761"
         y="95.396965"
         id="text5939"
         transform="rotate(0.27167258)"><tspan
           sodipodi:role="line"
           id="tspan5937"
           x="321.9761"
           y="95.396965"
           style="fill:#383838;fill-opacity:1;stroke-width:1.06472">3°</tspan></text></g></g></svg>
