<?xml version="1.0" encoding="UTF-8" standalone="no"?>
<!-- Created with Inkscape (http://www.inkscape.org/) -->

<svg
   width="180"
   height="180"
   viewBox="0 0 180 180"
   version="1.1"
   id="svg5"
   xml:space="preserve"
   sodipodi:docname="aula2.svg"
   inkscape:version="1.1.2 (0a00cf5339, 2022-02-04)"
   xmlns:inkscape="http://www.inkscape.org/namespaces/inkscape"
   xmlns:sodipodi="http://sodipodi.sourceforge.net/DTD/sodipodi-0.dtd"
   xmlns:xlink="http://www.w3.org/1999/xlink"
   xmlns="http://www.w3.org/2000/svg"
   xmlns:svg="http://www.w3.org/2000/svg"><sodipodi:namedview
     id="namedview7"
     pagecolor="#ffffff"
     bordercolor="#000000"
     borderopacity="0.25"
     inkscape:showpageshadow="2"
     inkscape:pageopacity="0.0"
     inkscape:pagecheckerboard="0"
     inkscape:deskcolor="#d1d1d1"
     inkscape:document-units="px"
     showgrid="false"
     inkscape:zoom="0.96568915"
     inkscape:cx="168.79138"
     inkscape:cy="103.55299"
     inkscape:window-width="1366"
     inkscape:window-height="691"
     inkscape:window-x="0"
     inkscape:window-y="0"
     inkscape:window-maximized="1"
     inkscape:current-layer="layer1"
     inkscape:pageshadow="0" /><defs
     id="defs2"><linearGradient
       inkscape:collect="always"
       xlink:href="#linearGradient6201"
       id="linearGradient6203"
       x1="89.990128"
       y1="92.477173"
       x2="139.49998"
       y2="141.22717"
       gradientUnits="userSpaceOnUse"
       gradientTransform="translate(-53.538903,135.75949)" /><linearGradient
       inkscape:collect="always"
       id="linearGradient6201"><stop
         style="stop-color:#ffdc22;stop-opacity:1;"
         offset="0"
         id="stop6197" /><stop
         style="stop-color:#ff8c00;stop-opacity:1"
         offset="1"
         id="stop6199" /></linearGradient></defs><g
     inkscape:label="Camada 1"
     inkscape:groupmode="layer"
     id="layer1"><g
       id="g1236"
       transform="matrix(2.6436261,0,0,3.3463795,-53.5811,-754.66188)"><path
         id="path5828"
         style="fill:url(#linearGradient6203);fill-opacity:1;stroke-width:1.26334"
         d="m 27.189252,228.23666 c -2.893397,0 -5.360156,2.79137 -5.222656,6.25 l 1.441406,36.25 c 0.1375,3.45864 2.329269,6.25 5.222656,6.25 h 50.564456 c 2.89339,0 5.07601,-2.7919 5.22266,-6.25 l 1.53711,-36.25 c 0.14665,-3.4581 -2.32928,-6.25 -5.22266,-6.25 z" /><rect
         style="fill:#ff0d0d;fill-opacity:1;stroke:none;stroke-width:0.2;stroke-opacity:1"
         id="rect5830"
         width="33.320862"
         height="1.4793278"
         x="37.300667"
         y="265.5787"
         ry="0.7396639" /><rect
         style="fill:#ffa695;fill-opacity:1;stroke:none;stroke-width:0.155577;stroke-opacity:1"
         id="rect5832"
         width="20.162586"
         height="1.4793278"
         x="50.458939"
         y="265.5787"
         ry="0.7396639" /><path
         id="path5834"
         style="fill:#646464;fill-opacity:1;stroke:none;stroke-width:0.2;stroke-opacity:1"
         d="m 48.587474,265.57846 a 1.8061136,1.8061136 0 0 0 -0.16016,0.74023 1.8061136,1.8061136 0 0 0 0.16016,0.74024 h 3.29297 a 1.8061136,1.8061136 0 0 0 0.16016,-0.74024 1.8061136,1.8061136 0 0 0 -0.16016,-0.74023 z" /><circle
         style="fill:#383838;fill-opacity:1;stroke:none;stroke-width:0.2;stroke-opacity:1"
         id="circle5836"
         cx="50.528702"
         cy="266.31836"
         r="1.8061136" /><rect
         style="fill:#383838;fill-opacity:1;stroke:none;stroke-width:0.105624;stroke-opacity:1"
         id="rect5838"
         width="3.447001"
         height="2.7104592"
         x="27.969244"
         y="235.92705"
         ry="1.0129454" /><rect
         style="fill:#383838;fill-opacity:1;stroke:none;stroke-width:0.105624;stroke-opacity:1"
         id="rect5840"
         width="3.447001"
         height="2.7104592"
         x="27.969244"
         y="242.05879"
         ry="1.0129454" /><rect
         style="fill:#383838;fill-opacity:1;stroke:none;stroke-width:0.105624;stroke-opacity:1"
         id="rect5842"
         width="3.447001"
         height="2.7104592"
         x="27.969244"
         y="248.19055"
         ry="1.0129454" /><rect
         style="fill:#383838;fill-opacity:1;stroke:none;stroke-width:0.105624;stroke-opacity:1"
         id="rect5844"
         width="3.447001"
         height="2.7104592"
         x="27.969244"
         y="254.32231"
         ry="1.0129454" /><rect
         style="fill:#383838;fill-opacity:1;stroke:none;stroke-width:0.105624;stroke-opacity:1"
         id="rect5846"
         width="3.447001"
         height="2.7104592"
         x="27.969244"
         y="260.45407"
         ry="1.0129454" /><rect
         style="fill:#383838;fill-opacity:1;stroke:none;stroke-width:0.105624;stroke-opacity:1"
         id="rect5848"
         width="3.447001"
         height="2.7104592"
         x="27.969244"
         y="266.58582"
         ry="1.0129454" /><rect
         style="fill:#383838;fill-opacity:1;stroke:none;stroke-width:0.105624;stroke-opacity:1"
         id="rect5850"
         width="3.447001"
         height="2.7104592"
         x="76.505966"
         y="235.92705"
         ry="1.0129454" /><rect
         style="fill:#383838;fill-opacity:1;stroke:none;stroke-width:0.105624;stroke-opacity:1"
         id="rect5852"
         width="3.447001"
         height="2.7104592"
         x="76.505966"
         y="242.05879"
         ry="1.0129454" /><rect
         style="fill:#383838;fill-opacity:1;stroke:none;stroke-width:0.105624;stroke-opacity:1"
         id="rect5854"
         width="3.447001"
         height="2.7104592"
         x="76.505966"
         y="248.19055"
         ry="1.0129454" /><rect
         style="fill:#383838;fill-opacity:1;stroke:none;stroke-width:0.105624;stroke-opacity:1"
         id="rect5856"
         width="3.447001"
         height="2.7104592"
         x="76.505966"
         y="254.32231"
         ry="1.0129454" /><rect
         style="fill:#383838;fill-opacity:1;stroke:none;stroke-width:0.105624;stroke-opacity:1"
         id="rect5858"
         width="3.447001"
         height="2.7104592"
         x="76.505966"
         y="260.45407"
         ry="1.0129454" /><rect
         style="fill:#383838;fill-opacity:1;stroke:none;stroke-width:0.105624;stroke-opacity:1"
         id="rect5860"
         width="3.447001"
         height="2.7104592"
         x="76.505966"
         y="266.58582"
         ry="1.0129454" /><g
         id="g5866"
         transform="translate(-56.47835,208.75496)"><path
           id="path5862"
           style="fill:#ff0d0d;fill-opacity:1;stroke-width:26.9217"
           d="M 100.93116,44.345783 V 28.062004 a 3.4679073,3.4679073 0 0 1 5.20185,-3.003297 l 14.10217,8.141891 a 3.4679071,3.4679071 0 0 1 0,6.006591 l -14.10217,8.141891 a 3.4679075,3.4679075 0 0 1 -5.20185,-3.003297 z"
           sodipodi:nodetypes="cccc"
           inkscape:transform-center-x="-3.0186562" /><path
           id="path5864"
           style="opacity:0.5;fill:none;fill-opacity:1;stroke:#562f00;stroke-width:0.900053;stroke-dasharray:none;stroke-opacity:1"
           d="M 103.65618,45.150394 V 30.494127 A 3.1213009,3.1213009 0 0 1 108.33813,27.791 l 12.6927,7.328135 a 3.1213007,3.1213007 0 0 1 0,5.406251 l -12.6927,7.328134 a 3.121301,3.121301 0 0 1 -4.68195,-2.703126 z"
           sodipodi:nodetypes="cccc"
           inkscape:transform-center-x="-2.7169511" /></g><text
         xml:space="preserve"
         style="font-style:normal;font-variant:normal;font-weight:900;font-stretch:normal;font-size:12.7766px;font-family:Roboto;-inkscape-font-specification:'Roboto Heavy';fill:#383838;fill-opacity:1;stroke:none;stroke-width:1.06472"
         x="60.183907"
         y="264.19077"
         id="text5870"
         transform="rotate(0.27167258)"><tspan
           sodipodi:role="line"
           id="tspan5868"
           x="60.183907"
           y="264.19077"
           style="fill:#383838;fill-opacity:1;stroke-width:1.06472">2°</tspan></text></g></g></svg>
